<?xml version="1.0" encoding="iso-8859-1"?>
<!-- Generator: Adobe Illustrator 19.0.0, SVG Export Plug-In . SVG Version: 6.00 Build 0)  -->
<svg version="1.1" id="Layer_1" xmlns="http://www.w3.org/2000/svg" xmlns:xlink="http://www.w3.org/1999/xlink" x="0px" y="0px"
	 viewBox="0 0 512 512" style="enable-background:new 0 0 512 512;" xml:space="preserve">
<rect x="234.887" y="356.289" style="fill:#36C63F;" width="42.227" height="42.227"/>
<rect x="234.887" y="314.062" style="fill:#FFD311;" width="42.227" height="42.227"/>
<g>
	<rect x="203.217" y="467.134" style="fill:#595E62;" width="105.567" height="36.948"/>
	<rect x="203.217" y="208.495" style="fill:#595E62;" width="105.567" height="63.34"/>
</g>
<g>
	<path style="fill:#AFB6BB;" d="M234.887,314.062v42.227v42.227h42.227v-42.227v-42.227H234.887z M308.784,271.835v195.299H203.217
		V271.835H308.784z"/>
	<polygon style="fill:#AFB6BB;" points="372.124,71.258 372.124,145.155 308.784,208.495 203.217,208.495 139.876,145.155 
		139.876,71.258 	"/>
</g>
<rect x="139.876" y="7.918" style="fill:#7E8488;" width="232.247" height="63.34"/>
<g>
	<rect x="203.217" y="467.134" style="fill:#474C4F;" width="52.784" height="36.948"/>
	<rect x="203.217" y="208.495" style="fill:#474C4F;" width="52.784" height="63.34"/>
</g>
<g>
	<polygon style="fill:#989EA3;" points="256,398.515 234.887,398.515 234.887,356.289 234.887,314.062 256,314.062 256,271.835 
		203.217,271.835 203.217,467.134 256,467.134 	"/>
	<polygon style="fill:#989EA3;" points="256,71.258 139.876,71.258 139.876,145.155 203.217,208.495 256,208.495 	"/>
</g>
<rect x="139.876" y="7.918" style="fill:#6C7175;" width="116.124" height="63.34"/>
<g>
	<rect x="192.66" y="100.289" style="fill:#FFFFFF;" width="126.68" height="15.835"/>
	<rect x="329.897" y="100.289" style="fill:#FFFFFF;" width="21.113" height="15.835"/>
	<rect x="160.99" y="100.289" style="fill:#FFFFFF;" width="21.113" height="15.835"/>
	<rect x="229.608" y="232.247" style="fill:#FFFFFF;" width="52.784" height="15.835"/>
</g>
<path d="M131.959,0v148.434l63.34,63.34V512h121.402V211.774l63.34-63.34V0H131.959z M211.134,216.412h89.732v47.505h-89.732
	V216.412z M211.134,279.753h89.732v179.464h-89.732V279.753z M211.134,496.165v-21.113h89.732v21.113H211.134z M364.206,141.876
	l-58.702,58.702h-99.008l-58.703-58.702v-62.7h216.412V141.876z M147.794,63.34V15.835h216.412V63.34H147.794z"/>
<path d="M226.969,306.144v100.289h58.062V306.144H226.969z M269.196,321.979v26.392h-26.392v-26.392H269.196z M242.804,390.598
	v-26.392h26.392v26.392H242.804z"/>
<g>
</g>
<g>
</g>
<g>
</g>
<g>
</g>
<g>
</g>
<g>
</g>
<g>
</g>
<g>
</g>
<g>
</g>
<g>
</g>
<g>
</g>
<g>
</g>
<g>
</g>
<g>
</g>
<g>
</g>
</svg>
