<?xml version="1.0" encoding="iso-8859-1"?>
<!-- Generator: Adobe Illustrator 18.0.0, SVG Export Plug-In . SVG Version: 6.00 Build 0)  -->
<!DOCTYPE svg PUBLIC "-//W3C//DTD SVG 1.1//EN" "http://www.w3.org/Graphics/SVG/1.1/DTD/svg11.dtd">
<svg version="1.1" id="Capa_1" xmlns="http://www.w3.org/2000/svg" xmlns:xlink="http://www.w3.org/1999/xlink" x="0px" y="0px"
	 viewBox="0 0 438.876 438.876" style="enable-background:new 0 0 438.876 438.876;" xml:space="preserve">
<g>
	<path style="fill:#F9C146;" d="M249.114,157.605c7.713-4.456,13.741-11.427,16.709-19.826c0.02-0.057,0.04-0.113,0.06-0.17l0,0
		c15.647-44.767,0.018-94.495-38.426-122.262L206.209,0l-36.365,104.042c-5.031,14.395-3.211,29.525,3.746,41.833
		c5.233,9.257,14.243,15.777,24.596,18.205l2.761,0.647C217.324,168.568,234.549,166.021,249.114,157.605L249.114,157.605z"/>
	<path style="fill:#F15A24;" d="M242.941,111.456c0,15.602-10.074,28.25-22.5,28.25s-22.5-12.648-22.5-28.25s22.5-51.25,22.5-51.25
		S242.941,95.854,242.941,111.456z"/>
	<path style="fill:#CEA236;" d="M271.701,342.006l-34.39,34.39v48.11c0,3.97-1.61,7.56-4.21,10.16c-2.6,2.6-6.2,4.21-10.16,4.21
		c-7.93,0-14.36-6.43-14.36-14.37v-148.18l17.55-63.93l-6.02-15.8l24.61-16.09l11.6,30.44l-19.01,69.25v55.89l23.37-5.1
		L271.701,342.006z"/>
	<polygon style="fill:#9B7C37;" points="234.791,154.426 244.721,180.506 220.111,196.596 205.871,159.226 	"/>
	<path style="fill:#4C3C1B;" d="M227.561,119.166c4.66,0.16,8.3,4.06,8.14,8.72l-0.91,26.54l-28.92,4.8l1.12-32.33
		c0.16-4.66,4.07-8.3,8.72-8.14L227.561,119.166z"/>
</g>
<g>
</g>
<g>
</g>
<g>
</g>
<g>
</g>
<g>
</g>
<g>
</g>
<g>
</g>
<g>
</g>
<g>
</g>
<g>
</g>
<g>
</g>
<g>
</g>
<g>
</g>
<g>
</g>
<g>
</g>
</svg>
